<svg xmlns="http://www.w3.org/2000/svg" width="176" height="40" viewBox="0 0 176 40" fill="none"><path d="M65.3379 6.498V10.194H60.6759V33H55.8459V10.194H51.2259V6.498H65.3379ZM73.2214 22.668V33H68.3914V6.498H78.1354C81.1874 6.498 82.7134 7.884 82.7134 10.656V18.51C82.7134 20.806 81.6914 22.15 79.6474 22.542L84.0574 33H78.8494L74.8174 22.668H73.2214ZM73.2214 10.194V19.098H76.7074C77.1554 19.098 77.4634 19.028 77.6314 18.888C77.7994 18.72 77.8834 18.412 77.8834 17.964V11.328C77.8834 10.88 77.7994 10.586 77.6314 10.446C77.4634 10.278 77.1554 10.194 76.7074 10.194H73.2214ZM98.1563 33L97.1483 27.498H91.3523L90.4283 33H85.5983L90.9323 6.498H97.4423L103.028 33H98.1563ZM91.9823 23.844H96.4763L94.1663 11.16L91.9823 23.844ZM116.454 6.498H120.864V33H116.328L110.658 15.444V33H106.206V6.498H110.868L116.454 23.802V6.498ZM134.19 28.17V22.5C134.19 22.052 134.106 21.758 133.938 21.618C133.77 21.45 133.462 21.366 133.014 21.366H129.612C126.728 21.366 125.286 19.966 125.286 17.166V10.656C125.286 7.884 126.798 6.498 129.822 6.498H134.442C137.466 6.498 138.978 7.884 138.978 10.656V14.352H134.106V11.328C134.106 10.88 134.022 10.586 133.854 10.446C133.686 10.278 133.378 10.194 132.93 10.194H131.334C130.858 10.194 130.536 10.278 130.368 10.446C130.2 10.586 130.116 10.88 130.116 11.328V16.662C130.116 17.11 130.2 17.418 130.368 17.586C130.536 17.726 130.858 17.796 131.334 17.796H134.652C137.592 17.796 139.062 19.168 139.062 21.912V28.842C139.062 31.614 137.536 33 134.484 33H129.948C126.896 33 125.37 31.614 125.37 28.842V25.188H130.2V28.17C130.2 28.618 130.284 28.926 130.452 29.094C130.62 29.234 130.942 29.304 131.418 29.304H133.014C133.462 29.304 133.77 29.234 133.938 29.094C134.106 28.926 134.19 28.618 134.19 28.17ZM156.258 10.194H148.278V18.258H154.788V21.786H148.278V33H143.406V6.498H156.258V10.194ZM168.618 33H163.788V24.6L157.614 6.498H162.528L166.14 20.106L169.542 6.498H174.456L168.618 24.474V33Z" fill="white"></path><path fill-rule="evenodd" clip-rule="evenodd" d="M0 19.5079V14.3016C0 14.8752 0.466425 15.3416 1.04 15.3416H11.8308C12.4044 15.3416 12.8708 14.8752 12.8708 14.3016V11.0619C12.8708 10.6837 13.0536 10.3622 13.3877 10.1668C13.6713 10.0029 13.9802 9.98403 14.2701 10.0912C14.3205 10.1101 14.3772 10.1416 14.4277 10.1668L20.0185 13.394L21.7392 14.3836L27.4371 17.68L29.0507 18.6003C29.3785 18.7957 29.5676 19.1171 29.5676 19.5016C29.5676 19.8798 29.3848 20.2013 29.0507 20.3967L27.4371 21.3295L21.7392 24.6134L20.0185 25.603L14.4277 28.8301C14.3772 28.8616 14.3205 28.8869 14.2701 28.9058C13.9802 29.0255 13.665 28.994 13.3877 28.8301C13.0599 28.6473 12.8708 28.3133 12.8708 27.9351V24.6953C12.8708 24.1218 12.4044 23.6679 11.8308 23.6679H1.04C0.466425 23.6679 0 24.1218 0 24.6953V19.5079Z" fill="white"></path><path fill-rule="evenodd" clip-rule="evenodd" d="M38.4675 24.0524L29.0507 18.6192C29.3722 18.8146 29.555 19.1361 29.555 19.5142C29.555 19.8924 29.3722 20.2139 29.0381 20.4093L21.7266 24.626L14.4151 28.8427C14.0873 29.0381 13.7028 29.0381 13.3751 28.8427C13.0473 28.6599 12.8582 28.3259 12.8582 27.9477V24.7079C12.8582 24.1344 12.3918 23.6805 11.8182 23.6805H1.04C0.466425 23.6805 0 24.1344 0 24.7079V37.0808C0 38.1397 0.863517 39.0032 1.92243 39.0032H19.5079C28.6599 39.0095 36.4064 32.6057 38.4675 24.0524Z" fill="#FFAE01"></path><path fill-rule="evenodd" clip-rule="evenodd" d="M38.4675 24.0524L29.0507 18.6192C29.3722 18.8146 29.555 19.1361 29.555 19.5142C29.555 19.8924 29.3722 20.2139 29.0381 20.4093L21.7266 24.626L20.0059 25.6156C25.2563 29.2335 30.866 30.6391 35.94 29.971C37.0871 28.1683 37.9569 26.1765 38.4675 24.0524Z" fill="#FFAE01"></path><path fill-rule="evenodd" clip-rule="evenodd" d="M38.4675 24.0524L29.057 18.6192L29.0697 18.6318L29.0823 18.6444L29.1012 18.657C29.3911 18.8524 29.555 19.1613 29.555 19.5205C29.555 19.8987 29.3722 20.2202 29.0381 20.4156L27.4246 21.3484L38.2532 24.8781C38.3351 24.5945 38.4045 24.3235 38.4675 24.0524Z" fill="#1C1C1C"></path><path fill-rule="evenodd" clip-rule="evenodd" d="M29.0885 18.638L38.4675 24.0523C38.8204 22.5963 39.0032 21.0772 39.0032 19.5141C39.0032 8.7863 30.2231 0.00616455 19.5079 0.00616455H1.92243C0.863517 0.00616455 0 0.869681 0 1.92859V14.3015C0 14.875 0.466425 15.3415 1.04 15.3415H11.8308C12.4044 15.3415 12.8708 14.875 12.8708 14.3015V11.0617C12.8708 10.6835 13.0536 10.3621 13.3877 10.1667C13.7154 9.97128 14.0999 9.97128 14.4277 10.1667L21.7392 14.3834L29.0507 18.6001L29.0633 18.6127C29.0633 18.6254 29.0822 18.6254 29.0885 18.638Z" fill="#FF3710"></path><path fill-rule="evenodd" clip-rule="evenodd" d="M14.2701 10.0912C15.1714 1.93503 22.0733 -0.554667 29.4982 2.77964C26.5736 1.00849 23.1511 0 19.5079 0H1.92243C0.863517 0 0 0.863515 0 1.92243V14.3016C0 14.8752 0.466425 15.3416 1.04 15.3416H11.8308C12.4044 15.3416 12.8708 14.8752 12.8708 14.3016V11.0618C12.8708 10.6837 13.0536 10.3622 13.3877 10.1668C13.665 10.0029 13.9738 9.98402 14.2701 10.0912Z" fill="#FF3710"></path><path fill-rule="evenodd" clip-rule="evenodd" d="M38.1398 13.7785C33.9104 8.63518 24.229 7.6519 19.5332 13.1292L21.733 14.3899L29.0445 18.6066L29.0571 18.6192C29.0697 18.6192 29.0697 18.6192 29.0697 18.6192L38.4801 24.0524C38.8331 22.5964 39.0159 21.0774 39.0159 19.5142C39.0033 17.5162 38.7008 15.5937 38.1398 13.7785Z" fill="#FF3710"></path><path fill-rule="evenodd" clip-rule="evenodd" d="M14.2701 28.9184C15.1714 37.0745 22.0733 39.5642 29.4982 36.2362C26.5736 37.9948 23.1511 39.0032 19.5079 39.0032H1.92243C0.863517 39.0032 0 38.1397 0 37.0808V24.7079C0 24.1344 0.466425 23.6805 1.04 23.6805H11.8308C12.4044 23.6805 12.8708 24.1344 12.8708 24.7079V27.9477C12.8708 28.3259 13.0536 28.6599 13.3877 28.8427C13.665 29.0066 13.9738 29.0381 14.2701 28.9184Z" fill="#FFAE01"></path><path fill-rule="evenodd" clip-rule="evenodd" d="M29.555 19.5079H17.0182L14.7806 24.2415V19.5079H0V24.7079C0 24.1344 0.466425 23.6805 1.04 23.6805H11.8308C12.4044 23.6805 12.8708 24.1344 12.8708 24.7079V27.9477C12.8708 28.3259 13.0536 28.66 13.3877 28.8427C13.6713 29.0066 13.9801 29.0381 14.2701 28.9184C14.3205 28.8995 14.3772 28.868 14.4277 28.8427L20.0185 25.6156L21.7392 24.626L27.4371 21.3421L29.0507 20.4093C29.3722 20.2076 29.555 19.8924 29.555 19.5079Z" fill="#BCCAD9"></path></svg>